# xmcd
#
# Track frame offsets: 
#        150
#        20520
#        36345
#        54910
#        69792
#        86012
#        102755
#        123430
#        143682
#        166030
#        182762
#        207222
#        220012
#        233670
#
# Disc length: 3288 seconds
#
# Revision: 5
# Processed by: cddbd v1.5.2PL0 Copyright (c) Steve Scherf et al.
# Submitted via: ExactAudioCopy v0.99pb5
#
DISCID=b00cd60e
DTITLE=Квартал - "The best of " КВАРТАЛ. УТРО
DYEAR=1994
DGENRE=
TTITLE0=Парамарибо
TTITLE1=Все земное стало странным
TTITLE2=Садо-якко
TTITLE3=Мойдодыр
TTITLE4=Там, на Таити
TTITLE5=Моя любовь осталась в Амстердаме
TTITLE6=Плакать не надо
TTITLE7=Шейк
TTITLE8=Замерзла
TTITLE9=Сукин сын
TTITLE10=Ay mi vida
TTITLE11=Не улетай, лето
TTITLE12=Остров белых птиц
TTITLE13=Осенний бит
EXTD=©1994 КВАРТАЛ®1994 MSA D. S. Production Ltd.\nDS 09439
EXTT0=
EXTT1=
EXTT2=
EXTT3=
EXTT4=
EXTT5=
EXTT6=
EXTT7=
EXTT8=
EXTT9=
EXTT10=
EXTT11=
EXTT12=
EXTT13=
PLAYORDER=
